<svg width="64" height="64" viewBox="0 0 64 64" fill="none" xmlns="http://www.w3.org/2000/svg">
<path d="M33 8H31V10H33V8Z" fill="#ffffff" id="id_101"></path>
<path d="M52.75 26.34C52.6571 26.2324 52.5419 26.1462 52.4124 26.0875C52.2829 26.0288 52.1422 25.9989 52 26H48.6L50.97 12.52C50.9966 12.3842 50.9932 12.2443 50.96 12.11L48.59 2.55C48.5437 2.36205 48.4439 2.19159 48.3026 2.05928C48.1613 1.92698 47.9846 1.83852 47.7941 1.80464C47.6035 1.77076 47.4072 1.79291 47.229 1.86842C47.0507 1.94392 46.8982 2.06953 46.79 2.23L41.29 10.4C41.2112 10.517 41.1599 10.6503 41.14 10.79L39 22.89V13C39 12.7348 38.8946 12.4804 38.7071 12.2929C38.5196 12.1054 38.2652 12 38 12H35.97C36.6348 11.141 36.997 10.0862 37 9C36.997 7.84819 36.5979 6.73247 35.8695 5.84021C35.1411 4.94794 34.1279 4.33348 33 4.1V2H31V4.1C29.8721 4.33348 28.8589 4.94794 28.1305 5.84021C27.4021 6.73247 27.0029 7.84819 27 9C27.003 10.0862 27.3652 11.141 28.03 12H26C25.7348 12 25.4804 12.1054 25.2929 12.2929C25.1054 12.4804 25 12.7348 25 13V23.55L24.91 23.01C24.9013 22.9621 24.8879 22.9152 24.87 22.87L21.42 3.32C21.3993 3.19055 21.3528 3.06656 21.2834 2.95535C21.214 2.84413 21.123 2.74794 21.0158 2.67245C20.9087 2.59696 20.7874 2.54369 20.6593 2.51579C20.5313 2.48789 20.3989 2.48592 20.27 2.51L12.39 3.9C12.2605 3.92073 12.1366 3.96717 12.0253 4.03659C11.9141 4.106 11.8179 4.19698 11.7425 4.30416C11.667 4.41134 11.6137 4.53255 11.5858 4.66065C11.5579 4.78874 11.5559 4.92113 11.58 5.05L15.27 26H12C11.8578 25.9989 11.7171 26.0288 11.5876 26.0875C11.4581 26.1462 11.3429 26.2324 11.25 26.34C11.1556 26.4447 11.0852 26.5687 11.0438 26.7035C11.0023 26.8382 10.9908 26.9804 11.01 27.12L12.01 35.12C12.0393 35.3622 12.1561 35.5853 12.3384 35.7474C12.5207 35.9095 12.756 35.9993 13 36H14.05L17.01 61.12C17.0393 61.3622 17.1561 61.5853 17.3384 61.7474C17.5207 61.9095 17.756 61.9993 18 62H46C46.244 61.9993 46.4793 61.9095 46.6616 61.7474C46.8439 61.5853 46.9607 61.3622 46.99 61.12L49.95 36H51C51.244 35.9993 51.4793 35.9095 51.6616 35.7474C51.8439 35.5853 51.9607 35.3622 51.99 35.12L52.99 27.12C53.0092 26.9804 52.9977 26.8382 52.9562 26.7035C52.9148 26.5687 52.8444 26.4447 52.75 26.34V26.34ZM46.57 26H44.54L46.86 12.81L48.83 13.16L46.57 26ZM47.19 5.22L47.6 6.85L46.25 6.61L47.19 5.22ZM45.03 8.43L48.12 8.97L48.65 11.1L43.81 10.24L45.03 8.43ZM42.93 12.12L44.89 12.47L42.51 26H40.48L42.93 12.12ZM32 6C32.5933 6 33.1734 6.17594 33.6667 6.50559C34.1601 6.83523 34.5446 7.30377 34.7716 7.85195C34.9987 8.40013 35.0581 9.00332 34.9424 9.58527C34.8266 10.1672 34.5409 10.7018 34.1213 11.1213C33.7018 11.5409 33.1672 11.8266 32.5853 11.9424C32.0033 12.0581 31.4001 11.9987 30.8519 11.7716C30.3038 11.5446 29.8352 11.1601 29.5056 10.6667C29.1759 10.1734 29 9.59334 29 9C29.0024 8.20508 29.3192 7.44339 29.8813 6.8813C30.4434 6.3192 31.2051 6.00237 32 6V6ZM27 14H37V16H27V14ZM37 18V26H35V18H37ZM33 18V26H31V18H33ZM27 18H29V26H27V18ZM13.72 5.69L19.63 4.65L19.98 6.61L16.04 7.31L16.39 9.28L20.32 8.58L20.67 10.55L18.7 10.9L19.05 12.87L21.02 12.52L21.36 14.49L19.4 14.84L19.75 16.81L21.71 16.46L22.06 18.43L18.12 19.13L18.47 21.1L22.41 20.4L22.75 22.37L20.79 22.72L21.14 24.69L23.11 24.34L23.4 26H17.3L13.72 5.69ZM45.11 60H18.89L16.07 36H47.93L45.11 60ZM50.12 34H13.88L13.13 28H50.87L50.12 34Z" fill="#ffffff" id="id_102"></path>
</svg>